<?xml version="1.0" encoding="UTF-8"?>
<svg version="1.1" viewBox="0 0 78 78" xmlns="http://www.w3.org/2000/svg">
 <path id="path2" d="m38.9 0c-21.5 0-38.9 17.4-38.9 38.9s17.4 38.9 38.9 38.9 38.9-17.4 38.9-38.9-17.4-38.9-38.9-38.9zm0 70.6c-17.5 0-31.7-14.2-31.7-31.7s14.2-31.7 31.7-31.7 31.7 14.2 31.7 31.7-14.2 31.7-31.7 31.7z" fill="#0f361a"/>
 <path id="path23" d="m38.9 1.52c-20.7 0-37.4 16.8-37.4 37.4 0 20.7 16.8 37.4 37.4 37.4 20.7 0 37.4-16.8 37.4-37.4.001-20.7-16.8-37.4-37.4-37.4zm0 69.1c-17.5 0-31.7-14.2-31.7-31.7s14.2-31.7 31.7-31.7 31.7 14.2 31.7 31.7-14.2 31.7-31.7 31.7z" fill="#4a5a4a"/>
 <path id="path36" d="m38.9 5.78c-18.3 0-33.2 14.8-33.2 33.2s14.8 33.2 33.2 33.2c18.3 0 33.2-14.8 33.2-33.2s-14.8-33.2-33.2-33.2zm0 64.8c-17.5 0-31.7-14.2-31.7-31.7s14.2-31.7 31.7-31.7 31.7 14.2 31.7 31.7-14.2 31.7-31.7 31.7z" fill="#1c2b1a"/>
<g>
 <path id="path159" d="m34.5 28.9s-4.79-5.75-9.04-8.51c-5.38-3.49-6.84-4.16-.496-7.37 6.34-3.2 13.2-3.2 14.7-.757 1.44 2.44 2.26 10.8-.191 15.6 0 0-3.55-.044-4.92 1.05z" fill="none" stroke="#b5c291" stroke-width=".864"/>
 <path id="path165" d="m43.9 29.5s1.38-7.35.797-12.4c-.735-6.37-1.15-7.92 5.36-5.08s10.9 8.14 9.92 10.8c-.967 2.66-6.86 8.61-12.1 9.79 0 0-2.23-2.76-3.95-3.12z" fill="none" stroke="#b5c291" stroke-width=".864"/>
 <path id="path171" d="m28.4 35.9s-7.48.154-12.3 1.76c-6.09 2.02-7.52 2.75-6.07-4.21s5.74-12.3 8.55-11.9c2.8.399 9.83 4.95 12.1 9.87 0 0-2.25 2.75-2.25 4.5z" fill="none" stroke="#b5c291" stroke-width=".864"/>
 <path id="path177" d="m30.2 45.2s-4.54 5.94-6.3 10.7c-2.22 6.02-2.54 7.59-7.08 2.11s-6.05-12.2-3.98-14.1c2.06-1.94 10-4.59 15.2-3.27 0 0 .745 3.47 2.12 4.57z" fill="none" stroke="#b5c291" stroke-width=".864"/>
 <path id="path183" d="m37.9 49.2s1.93 7.23 4.64 11.5c3.42 5.43 4.46 6.65-2.64 6.9-7.1.249-13.3-2.64-13.6-5.46-.281-2.82 2.47-10.7 6.71-14.1.001 0 3.21 1.53 4.91 1.11z" fill="none" stroke="#b5c291" stroke-width=".864"/>
 <path id="path189" d="m46.7 45.6s6.8 3.12 11.8 3.77c6.36.828 7.96.802 3.63 6.43-4.34 5.63-10.5 8.6-12.9 7.01-2.35-1.58-6.69-8.74-6.56-14.1.001 0 3.22-1.5 3.99-3.08z" fill="none" stroke="#b5c291" stroke-width=".864"/>
 <path id="path195" d="m48.9 36.2s6.62-3.49 10.2-7.08c4.54-4.54 5.5-5.82 7.31 1.05s.383 13.6-2.3 14.5c-2.69.899-11-.028-15.2-3.43.001 0 .783-3.46-.003-5.04z" fill="none" stroke="#b5c291" stroke-width=".864"/>
 <circle id="circle212" cx="39" cy="39" r="12" fill="#e6e6f0" stroke="#b5c291" stroke-width=".7"/>
 <circle id="circle237" cx="39" cy="39" r="10" fill="#a8bab0"/>
 <circle id="circle244" cx="39" cy="39" r="8" fill="#dcdcd2"/>
</g>
</svg>
