<svg id="a" width="45" height="21.1" enable-background="new 0 0 1417.32 1417.32" version="1.1" viewBox="0 0 45.03311 21.105668" xml:space="preserve" xmlns="http://www.w3.org/2000/svg"><path id="b" d="m35.4 19c-3.1 0.245-5.69-0.97-7.14-3.21l0.214 2.43-0.688 0.401c-1.19 0.699-2.97 1.19-4.86 1.33-4.64 0.366-8-2.43-8.35-6.96-0.016-0.175-0.023-0.353-0.029-0.532-1.47 1.21-3.76 2-6.82 2.35 0.494 0.204 1.1 0.201 1.49 0.172 1.37-0.108 2.58-0.484 3.71-1.15l1.56-0.916 1.04 5.88-0.729 0.445c-2.33 1.43-5.14 1.78-6.24 1.87-4.96 0.39-8.14-2.29-8.53-7.17-0.42-5.34 2.98-11.2 9.4-11.7 3.32-0.262 5.92 1.27 6.78 3.9 1.86-2.94 5.08-4.83 8.82-5.13 1.79-0.142 3.14 0.161 3.63 0.298l1.17 0.324-0.556 2.32c1.75-2.24 4.35-3.65 7.34-3.88 4.59-0.36 8.04 2.52 8.39 7.02 0.501 6.4-3.54 11.4-9.61 11.9zm1.09-12.9c-1.63 0.128-2.44 3.15-2.28 5.18 0.09 1.16 0.558 1.72 1.38 1.65 1.26-0.099 2.4-2.79 2.21-5.24-0.089-1.12-0.53-1.66-1.32-1.59zm-11 1.06c-2.59 0.204-3.81 2.58-3.65 4.72 0.098 1.25 0.786 1.89 1.94 1.8 1.15-0.09 1.92-0.432 2.56-0.746l0.786-0.389c-0.032-0.22-0.057-0.428-0.073-0.629-0.121-1.56 0.034-3.06 0.467-4.47l-0.395-0.128c-0.334-0.106-0.819-0.222-1.63-0.158zm-18.1 0.792c-0.508 0.402-0.319 1.64 9e-3 1.98 0.624 0.094 1.19 0.242 2.25-0.596 0.345-0.155 0.955-2.36 0.322-2.28-0.497-0.083-1.3 0.027-1.58 0.294z" fill="#4d9543"/></svg>
