<?xml version="1.0" encoding="UTF-8" standalone="no"?>
<!-- Created with Inkscape (http://www.inkscape.org/) -->
<svg xmlns="http://www.w3.org/2000/svg" viewBox="0 0 170 170" version="1.1">
 <script><![CDATA[
function shows(evt, node)
{
        var svgdoc = evt.target.ownerDocument;
        var obj = svgdoc.getElementById(node);
        obj.setAttribute("display", "block");
}
function hides(evt, node)
{
        var svgdoc = evt.target.ownerDocument;
        var obj = svgdoc.getElementById(node);
        obj.setAttribute("display" , "none");
}
]]></script>
<g id="msg44"  display="none" onclick="hides(evt, 'msg44');" transform="scale(1) rotate(0)">
 <circle id="path822" opacity=".9" cx="85" fill-opacity=".3" cy="85" r="85" fill="#262626"/>
 <circle opacity=".9" cx="128.5" cy="43.3" r="20" fill="#1987ff"/>
 <circle opacity=".9" cx="27.9" cy="86.26" r="20" fill="#feb414"/>
 <circle opacity=".9" cx="41.4" cy="43.3" r="21" fill="#505078"/>
 <path fill-rule="evenodd" fill="#fffffc" d="m26.614 29.95 1.6509 1.207c-6.3578 7.8624-6.4709 16.204.0606 24.519-.57389.38769-1.1427.78253-1.7198 1.1649-7.2472-7.9098-6.5929-19.709.008-26.891z"/>
 <path fill-rule="evenodd" fill="#fffffc" d="m56.21 29.95-1.6509 1.207c6.3578 7.8624 6.4709 16.204-.0606 24.519.5739.38769 1.1427.78253 1.7198 1.1649 7.2472-7.9098 6.5929-19.709-.008-26.891z"/>
 <text style="text-anchor:middle" font-size="21px" y="42.18" x="50%" font-family="Ubuntu" fill="#fff">480</text>
 <circle opacity=".9" cx="142" fill-opacity=".7" cy="86.26" r="20" fill="#464545" onclick="#"/>
 <circle opacity=".9" cx="128.58" fill-opacity=".7" cy="128.05" r="20" fill="#464545" onclick="#"/>
 <circle opacity=".9" cx="41.413" fill-opacity=".7" cy="128.05" r="20" fill="#464646" onclick="#"/>

  <path d="m106.19 66.038c9.4914 11.003 9.9774 26.919.0218 37.925.86415.61191 1.2378.80733 2.1973 1.2871 10.751-12.995 9.1449-30.3.00039-40.5-.60751.33710-1.6166.88445-2.2195 1.2877z" 
 fill-rule="evenodd" fill="#fff"/>
	 
 <path d="m63.742 66.038c-9.339 10.596-9.825 26.614-.0218 37.925-.86415.61191-1.2378.80733-2.1973 1.2871-10.751-12.995-9.1449-30.3-.00039-40.5.60751.33710 1.6166.88445 2.2195 1.2877z" 
 fill-rule="evenodd" fill="#fff"/>
 </g>
 <circle opacity=".9" cx="85" cy="85" r="25" fill="#feb414" stroke="#feb414" stroke-width="0"
         onclick="shows(evt, 'msg44'); shows(evt, 'path822');"
         onmouseout="this.style.stroke = '#00000'; this.style['stroke-width'] = 0;" 
         onmouseover="this.style.stroke = '#d9000'; this.style['stroke-width'] = 3;"/>
 
 <path d="m67.79 70.27 1.735 1.347c-6.2412 8.9936-8.0059 17.95 0 26.826l-.35858.26567-1.3764 1.0198c-8.4383-10.166-6.9044-19.603 0-29.458z" 
       fill-rule="evenodd" stroke="#000" stroke-linecap="round" stroke-width=".1" fill="#fff"/>
 <path d="m102.2 70.28-1.735 1.347c6.2412 8.9936 8.0059 17.95 0 26.826l.35857.26567 1.3765 1.0198c8.4383-10.166 6.9044-19.603 0-29.458z" 
       fill-rule="evenodd" stroke="#000" stroke-linecap="round" stroke-width=".1" fill="#fff"/>
 <path id="symbolLampa" d="m81.026 89.431c2.7691.0164 5.5383.0329 8.3074.0493-.0138 1.3284-.0277 2.6568-.0415 3.9851-2.764.002-5.528.003-8.292.005.009-1.3465.0174-2.693.0261-4.0394zm1.5564 8.0214c.0532.56773.1065 1.1354.15975 1.7032 1.491.012 2.9821.0239 4.4731.0359.0597-.56014.11941-1.1203.17911-1.6804-1.604-.0195-3.208-.0391-4.812-.0587zm-1.666-.020c.0438-3.2001.0876-6.4001.13139-9.6002-2.6667-2.5461-4.914-4.6498-4.8869-8.4438-.009-2.6678 1.6482-6.2319 4.0438-7.3173 3.3362-1.5725 7.4339-1.923 10.39.39975 2.0434 1.5856 3.0085 3.6558 3.2449 6.9576-.38328 3.7344-.74573 4.251-4.4893 8.4194-.0336 3.2287-.0673 6.4575-.10091 9.6862-2.7777-.0339-5.5553-.0677-8.333-.10161z" 
 stroke="#fff" stroke-width="1px" fill="none"/>
</svg>
