<?xml version="1.0" encoding="UTF-8" standalone="no"?>
<!-- Created with Inkscape (http://www.inkscape.org/) -->

<svg
   xmlns:dc="http://purl.org/dc/elements/1.1/"
   xmlns:cc="http://creativecommons.org/ns#"
   xmlns:rdf="http://www.w3.org/1999/02/22-rdf-syntax-ns#"
   xmlns:svg="http://www.w3.org/2000/svg"
   xmlns="http://www.w3.org/2000/svg"
   xmlns:xlink="http://www.w3.org/1999/xlink"
   xmlns:sodipodi="http://sodipodi.sourceforge.net/DTD/sodipodi-0.dtd"
   xmlns:inkscape="http://www.inkscape.org/namespaces/inkscape"
   width="500"
   height="500"
   id="svg2"
   sodipodi:version="0.32"
   inkscape:version="0.48.2 r9819"
   version="1.0"
   sodipodi:docname="maclock2.svg"
   inkscape:output_extension="org.inkscape.output.svg.inkscape"
   inkscape:export-filename=""
   inkscape:export-xdpi="90"
   inkscape:export-ydpi="90"
   onload="Start(evt)">
  <defs
     id="defs4">
    <linearGradient
       id="linearGradient3410">
      <stop
         style="stop-color:#ffffff;stop-opacity:0.58823532;"
         offset="0"
         id="stop3412" />
      <stop
         style="stop-color:#ffffff;stop-opacity:0.00515464;"
         offset="1"
         id="stop3414" />
    </linearGradient>
    <linearGradient
       id="linearGradient3353">
      <stop
         style="stop-color:#ffffff;stop-opacity:0.27450982;"
         offset="0"
         id="stop3355" />
      <stop
         style="stop-color:#ff6432;stop-opacity:0;"
         offset="1"
         id="stop3357" />
    </linearGradient>
    <linearGradient
       id="linearGradient3336">
      <stop
         id="stop3338"
         offset="0"
         style="stop-color:#ffffff;stop-opacity:0.58247423;" />
      <stop
         id="stop3340"
         offset="1"
         style="stop-color:#cbcbcb;stop-opacity:0;" />
    </linearGradient>
    <linearGradient
       id="linearGradient3175">
      <stop
         id="stop3177"
         offset="0"
         style="stop-color:#ffc800;stop-opacity:1;" />
      <stop
         id="stop3179"
         offset="1"
         style="stop-color:#ff6432;stop-opacity:1;" />
    </linearGradient>
    <linearGradient
       id="linearGradient3159">
      <stop
         style="stop-color:#ffffff;stop-opacity:1;"
         offset="0"
         id="stop3161" />
      <stop
         style="stop-color:#cbcbcb;stop-opacity:1;"
         offset="1"
         id="stop3163" />
    </linearGradient>
    <inkscape:perspective
       sodipodi:type="inkscape:persp3d"
       inkscape:vp_x="0 : 526.18109 : 1"
       inkscape:vp_y="0 : 1000 : 0"
       inkscape:vp_z="744.09448 : 526.18109 : 1"
       inkscape:persp3d-origin="372.04724 : 350.78739 : 1"
       id="perspective10" />
    <linearGradient
       inkscape:collect="always"
       xlink:href="#linearGradient3159"
       id="linearGradient3165"
       x1="176.21468"
       y1="179.1347"
       x2="378.29956"
       y2="381.76083"
       gradientUnits="userSpaceOnUse" />
    <radialGradient
       inkscape:collect="always"
       xlink:href="#linearGradient3175"
       id="radialGradient3173"
       cx="271.42856"
       cy="285.71429"
       fx="271.42856"
       fy="285.71429"
       r="146.00571"
       gradientUnits="userSpaceOnUse" />
    <linearGradient
       inkscape:collect="always"
       xlink:href="#linearGradient3336"
       id="linearGradient3334"
       gradientUnits="userSpaceOnUse"
       gradientTransform="matrix(1.7156864,0,0,1.7156864,-215.68628,-238.19614)"
       x1="271.42856"
       y1="140.00003"
       x2="271.42856"
       y2="235.31537" />
    <radialGradient
       inkscape:collect="always"
       xlink:href="#linearGradient3353"
       id="radialGradient3351"
       gradientUnits="userSpaceOnUse"
       gradientTransform="matrix(1.6037268,-1.6037271,1.5736155,1.5736153,75.106494,1190.8217)"
       cx="271.79068"
       cy="-164.72032"
       fx="271.79068"
       fy="-164.72032"
       r="146.00571" />
    <inkscape:perspective
       id="perspective2631"
       inkscape:persp3d-origin="195 : 130 : 1"
       inkscape:vp_z="390 : 195 : 1"
       inkscape:vp_y="0 : 1000 : 0"
       inkscape:vp_x="0 : 195 : 1"
       sodipodi:type="inkscape:persp3d" />
    <radialGradient
       inkscape:collect="always"
       xlink:href="#linearGradient3410"
       id="radialGradient3416"
       cx="174.79732"
       cy="163.80641"
       fx="174.79732"
       fy="163.80641"
       r="117.62431"
       gradientTransform="matrix(1,0,0,0.9868261,0,2.1579735)"
       gradientUnits="userSpaceOnUse" />
  </defs>
  <sodipodi:namedview
     id="base"
     pagecolor="#606883"
     bordercolor="#666666"
     borderopacity="1.0"
     gridtolerance="10000"
     guidetolerance="10"
     objecttolerance="10"
     inkscape:pageopacity="0"
     inkscape:pageshadow="2"
     inkscape:zoom="0.70710678"
     inkscape:cx="210.47009"
     inkscape:cy="313.37052"
     inkscape:document-units="px"
     inkscape:current-layer="inkscape-logo"
     showgrid="false"
     showguides="true"
     inkscape:guide-bbox="true"
     inkscape:window-width="1274"
     inkscape:window-height="736"
     inkscape:window-x="0"
     inkscape:window-y="0"
     inkscape:window-maximized="0">
    <inkscape:grid
       type="xygrid"
       id="grid3183"
       visible="true"
       enabled="true"
       spacingx="50px"
       spacingy="50px"
       empspacing="5" />
  </sodipodi:namedview>
  <metadata
     id="metadata7">
    <rdf:RDF>
      <cc:Work
         rdf:about="">
        <dc:format>image/svg+xml</dc:format>
        <dc:type
           rdf:resource="http://purl.org/dc/dcmitype/StillImage" />
        <dc:title />
        <cc:license
           rdf:resource="http://creativecommons.org/licenses/publicdomain/" />
        <dc:creator>
          <cc:Agent>
            <dc:title>AR</dc:title>
          </cc:Agent>
        </dc:creator>
      </cc:Work>
      <cc:License
         rdf:about="http://creativecommons.org/licenses/publicdomain/">
        <cc:permits
           rdf:resource="http://creativecommons.org/ns#Reproduction" />
        <cc:permits
           rdf:resource="http://creativecommons.org/ns#Distribution" />
        <cc:permits
           rdf:resource="http://creativecommons.org/ns#DerivativeWorks" />
      </cc:License>
    </rdf:RDF>
  </metadata>
  <g
     inkscape:label="Layer 1"
     inkscape:groupmode="layer"
     id="layer1">
    <g
       id="g3359"
       sodipodi:insensitive="true">
      <path
         transform="matrix(1.7156864,0,0,1.7156864,-215.68628,-240.19614)"
         d="M 417.14284,285.71429 A 145.71428,145.71428 0 1 1 125.71428,285.71429 A 145.71428,145.71428 0 1 1 417.14284,285.71429 z"
         sodipodi:ry="145.71428"
         sodipodi:rx="145.71428"
         sodipodi:cy="285.71429"
         sodipodi:cx="271.42856"
         id="path3157"
         style="opacity:1;fill:url(#linearGradient3165);fill-opacity:1;stroke:#b3b3b3;stroke-width:0.58285707;stroke-linecap:butt;stroke-miterlimit:4;stroke-dasharray:none;stroke-opacity:1"
         sodipodi:type="arc" />
      <path
         sodipodi:type="arc"
         style="opacity:1;fill:url(#radialGradient3173);fill-opacity:1;stroke:#b3b3b3;stroke-width:0.58285707;stroke-linecap:butt;stroke-miterlimit:4;stroke-dasharray:none;stroke-opacity:1"
         id="path3167"
         sodipodi:cx="271.42856"
         sodipodi:cy="285.71429"
         sodipodi:rx="145.71428"
         sodipodi:ry="145.71428"
         d="M 417.14284,285.71429 A 145.71428,145.71428 0 1 1 125.71428,285.71429 A 145.71428,145.71428 0 1 1 417.14284,285.71429 z"
         transform="matrix(-1.6232331,0.2152384,-0.2113722,-1.5940766,750.98391,647.02862)" />
      <g
         id="g3291">
        <path
           transform="matrix(8e-2,0,0,8e-2,44,232)"
           style="fill:#ffffff;fill-opacity:1;stroke:none;stroke-width:1;stroke-linecap:butt;stroke-miterlimit:4;stroke-opacity:1"
           inkscape:transform-center-x="200"
           d="M 100,225 C 100,238.8 88.8,250 75,250 C 61.2,250 50,238.8 50,225 C 50,211.2 61.2,200 75,200 C 88.8,200 100,211.2 100,225 z"
           id="path3187" />
        <path
           transform="matrix(6.9282032e-2,-4e-2,4e-2,6.9282032e-2,62.598767,337.41154)"
           style="fill:#ffffff;fill-opacity:1;stroke:none;stroke-width:1;stroke-linecap:butt;stroke-miterlimit:4;stroke-opacity:1"
           inkscape:transform-center-x="173.20508"
           inkscape:transform-center-y="99.999997"
           d="M 100,225 C 100,238.8 88.8,250 75,250 C 61.2,250 50,238.8 50,225 C 50,211.2 61.2,200 75,200 C 88.8,200 100,211.2 100,225 z"
           id="path3191" />
        <path
           transform="matrix(4e-2,-6.9282032e-2,6.9282032e-2,4e-2,131.41154,419.40123)"
           style="fill:#ffffff;fill-opacity:1;stroke:none;stroke-width:1;stroke-linecap:butt;stroke-miterlimit:4;stroke-opacity:1"
           inkscape:transform-center-x="100"
           inkscape:transform-center-y="173.20508"
           d="M 100,225 C 100,238.8 88.8,250 75,250 C 61.2,250 50,238.8 50,225 C 50,211.2 61.2,200 75,200 C 88.8,200 100,211.2 100,225 z"
           id="path3193" />
        <path
           transform="matrix(0,-8e-2,8e-2,0,232,456)"
           style="fill:#ffffff;fill-opacity:1;stroke:none;stroke-width:1;stroke-linecap:butt;stroke-miterlimit:4;stroke-opacity:1"
           inkscape:transform-center-y="200"
           d="M 100,225 C 100,238.8 88.8,250 75,250 C 61.2,250 50,238.8 50,225 C 50,211.2 61.2,200 75,200 C 88.8,200 100,211.2 100,225 z"
           id="path3195" />
        <path
           transform="matrix(-4e-2,-6.9282032e-2,6.9282032e-2,-4e-2,337.41154,437.40123)"
           style="fill:#ffffff;fill-opacity:1;stroke:none;stroke-width:1;stroke-linecap:butt;stroke-miterlimit:4;stroke-opacity:1"
           inkscape:transform-center-x="-99.999997"
           inkscape:transform-center-y="173.20508"
           d="M 100,225 C 100,238.8 88.8,250 75,250 C 61.2,250 50,238.8 50,225 C 50,211.2 61.2,200 75,200 C 88.8,200 100,211.2 100,225 z"
           id="path3197" />
        <path
           transform="matrix(-6.9282032e-2,-4e-2,4e-2,-6.9282032e-2,419.40123,368.58846)"
           style="fill:#ffffff;fill-opacity:1;stroke:none;stroke-width:1;stroke-linecap:butt;stroke-miterlimit:4;stroke-opacity:1"
           inkscape:transform-center-x="-173.20508"
           inkscape:transform-center-y="100.00001"
           d="M 100,225 C 100,238.8 88.8,250 75,250 C 61.2,250 50,238.8 50,225 C 50,211.2 61.2,200 75,200 C 88.8,200 100,211.2 100,225 z"
           id="path3199" />
        <path
           transform="matrix(-8e-2,0,0,-8e-2,456,268)"
           style="fill:#ffffff;fill-opacity:1;stroke:none;stroke-width:1;stroke-linecap:butt;stroke-miterlimit:4;stroke-opacity:1"
           inkscape:transform-center-x="-200"
           d="M 100,225 C 100,238.8 88.8,250 75,250 C 61.2,250 50,238.8 50,225 C 50,211.2 61.2,200 75,200 C 88.8,200 100,211.2 100,225 z"
           id="path3201" />
        <path
           transform="matrix(-8e-2,0,0,-8e-2,456,268)"
           style="fill:#ffffff;fill-opacity:1;stroke:none;stroke-width:1;stroke-linecap:butt;stroke-miterlimit:4;stroke-opacity:1"
           inkscape:transform-center-x="-200"
           d="M 100,225 C 100,238.8 88.8,250 75,250 C 61.2,250 50,238.8 50,225 C 50,211.2 61.2,200 75,200 C 88.8,200 100,211.2 100,225 z"
           id="path3203" />
        <path
           transform="matrix(-6.9282032e-2,4e-2,-4e-2,-6.9282032e-2,437.40123,162.58846)"
           style="fill:#ffffff;fill-opacity:1;stroke:none;stroke-width:1;stroke-linecap:butt;stroke-miterlimit:4;stroke-opacity:1"
           inkscape:transform-center-x="-173.20508"
           inkscape:transform-center-y="-99.999997"
           d="M 100,225 C 100,238.8 88.8,250 75,250 C 61.2,250 50,238.8 50,225 C 50,211.2 61.2,200 75,200 C 88.8,200 100,211.2 100,225 z"
           id="path3205" />
        <path
           transform="matrix(-4e-2,6.9282032e-2,-6.9282032e-2,-4e-2,368.58846,80.59877)"
           style="fill:#ffffff;fill-opacity:1;stroke:none;stroke-width:1;stroke-linecap:butt;stroke-miterlimit:4;stroke-opacity:1"
           inkscape:transform-center-x="-100.00001"
           inkscape:transform-center-y="-173.20508"
           d="M 100,225 C 100,238.8 88.8,250 75,250 C 61.2,250 50,238.8 50,225 C 50,211.2 61.2,200 75,200 C 88.8,200 100,211.2 100,225 z"
           id="path3207" />
        <path
           transform="matrix(0,8e-2,-8e-2,0,268,43.999998)"
           style="fill:#ffffff;fill-opacity:1;stroke:none;stroke-width:1;stroke-linecap:butt;stroke-miterlimit:4;stroke-opacity:1"
           inkscape:transform-center-y="-200"
           d="M 100,225 C 100,238.8 88.8,250 75,250 C 61.2,250 50,238.8 50,225 C 50,211.2 61.2,200 75,200 C 88.8,200 100,211.2 100,225 z"
           id="path3209" />
        <path
           transform="matrix(4e-2,6.9282032e-2,-6.9282032e-2,4e-2,162.58846,62.598765)"
           style="fill:#ffffff;fill-opacity:1;stroke:none;stroke-width:1;stroke-linecap:butt;stroke-miterlimit:4;stroke-opacity:1"
           inkscape:transform-center-x="99.999997"
           inkscape:transform-center-y="-173.20508"
           d="M 100,225 C 100,238.8 88.8,250 75,250 C 61.2,250 50,238.8 50,225 C 50,211.2 61.2,200 75,200 C 88.8,200 100,211.2 100,225 z"
           id="path3211" />
        <path
           transform="matrix(6.9282032e-2,4e-2,-4e-2,6.9282032e-2,80.59877,131.41154)"
           style="fill:#ffffff;fill-opacity:1;stroke:none;stroke-width:1;stroke-linecap:butt;stroke-miterlimit:4;stroke-opacity:1"
           inkscape:transform-center-x="173.20508"
           inkscape:transform-center-y="-100"
           d="M 100,225 C 100,238.8 88.8,250 75,250 C 61.2,250 50,238.8 50,225 C 50,211.2 61.2,200 75,200 C 88.8,200 100,211.2 100,225 z"
           id="path3213" />
        <path
           style="font-size:36px;font-style:normal;font-variant:normal;font-weight:bold;font-stretch:normal;text-align:start;line-height:125%;writing-mode:lr-tb;text-anchor:start;fill:#ffffff;fill-opacity:1;stroke:none;stroke-width:1px;stroke-linecap:butt;stroke-linejoin:miter;stroke-opacity:1;font-family:AdriaDB;-inkscape-font-specification:AdriaDB Bold"
           d="M 243.94774,26.179607 L 237.37352,30.398357 L 237.90086,28.640545 L 249.81883,21.081951 L 241.90868,42.861248 L 237.33836,44.179607 C 238.20555,41.882734 240.40867,35.88274 243.94774,26.179607 M 265.34032,25.212811 C 265.3403,24.427674 265.12937,23.777284 264.7075,23.261639 C 264.28562,22.734316 263.68796,22.470644 262.91454,22.470623 C 261.44968,22.470644 260.13718,23.449159 258.97704,25.40617 C 257.9575,27.128843 257.44773,28.781185 257.44774,30.363201 C 257.44773,30.515558 257.54734,31.101495 257.74657,32.121014 L 257.27196,32.226482 C 256.53367,30.761652 256.15867,29.56634 256.14696,28.640545 C 256.13523,26.6015 256.85008,24.919861 258.29149,23.595623 C 259.68601,22.294863 261.40867,21.644473 263.45946,21.644451 C 265.08835,21.644473 266.43015,22.13666 267.48485,23.121014 C 268.57468,24.140565 269.1196,25.464782 269.11961,27.09367 C 269.1196,29.285091 267.95944,31.300714 265.63914,33.140545 C 264.74851,33.84368 262.64499,35.115163 259.3286,36.954998 C 257.59422,37.904223 256.31102,38.701097 255.47899,39.345623 C 254.33055,40.212814 253.28172,41.285079 252.3325,42.56242 C 254.50047,40.933517 256.90281,40.119064 259.53954,40.119061 C 260.13718,40.119064 260.98093,40.300705 262.07079,40.663982 C 263.16062,41.015548 263.95163,41.191329 264.44383,41.191326 C 265.05319,41.191329 265.84421,40.763595 266.81688,39.908123 L 267.23875,40.365154 C 266.58249,41.361251 265.65085,42.19914 264.44383,42.878826 C 263.23679,43.558514 262.05906,43.898357 260.91063,43.898357 C 260.1489,43.898357 259.02976,43.68742 257.55321,43.265545 C 256.08836,42.843671 254.96336,42.632734 254.17821,42.632732 C 253.06493,42.632734 252.15086,43.031171 251.43602,43.828045 L 250.94383,43.494061 C 251.88133,41.665938 253.53953,39.79094 255.91844,37.869061 C 259.19968,35.23235 261.12742,33.603446 261.70164,32.982342 C 262.60398,32.009697 263.41843,30.808527 264.145,29.378826 C 264.94187,27.761655 265.3403,26.372984 265.34032,25.212811"
           id="text3235" />
        <path
           style="font-size:36px;font-style:normal;font-variant:normal;font-weight:bold;font-stretch:normal;text-align:start;line-height:125%;writing-mode:lr-tb;text-anchor:start;fill:#ffffff;fill-opacity:1;stroke:none;stroke-width:1px;stroke-linecap:butt;stroke-linejoin:miter;stroke-opacity:1;font-family:AdriaDB;-inkscape-font-specification:AdriaDB Bold"
           d="M 461.19531,253.25391 L 461.16016,253.21875 C 461.98047,255.87891 463.38086,257.20899 465.36133,257.20898 C 466.76757,257.20899 468.09179,256.1836 469.33398,254.13281 C 470.45897,252.28126 471.02147,250.59376 471.02148,249.07031 C 471.02147,248.22657 470.7578,247.52345 470.23047,246.96094 C 469.71483,246.39845 469.04101,246.1172 468.20898,246.11719 C 467.55273,246.1172 466.94921,246.25782 466.39844,246.53906 C 466.11718,246.69142 465.60156,247.04298 464.85156,247.59375 L 464.46484,247.34766 L 466.01172,244.06055 C 466.65624,244.85744 467.43554,245.25587 468.34961,245.25586 C 469.58007,245.25587 470.68163,244.38869 471.6543,242.6543 C 472.49803,241.13088 472.91991,239.69533 472.91992,238.34766 C 472.91991,237.0469 471.99999,236.39651 470.16016,236.39648 C 469.45702,236.39651 468.66015,236.8008 467.76953,237.60938 C 466.99609,238.3008 466.42187,239.01564 466.04688,239.75391 L 465.25586,239.52539 L 466.08203,236.39648 C 467.82812,235.91604 469.30468,235.6758 470.51172,235.67578 C 472.23436,235.6758 473.65233,235.96877 474.76562,236.55469 C 476.17186,237.30471 476.88084,238.46486 476.89258,240.03516 C 476.90428,243.05861 474.75389,244.91603 470.44141,245.60742 C 473.58202,246.19337 475.15233,247.72267 475.15234,250.19531 C 475.15233,252.4336 474.02147,254.32618 471.75977,255.87305 C 469.73241,257.26758 467.54101,257.96484 465.18555,257.96484 C 463.99023,257.96484 462.41992,257.64258 460.47461,256.99805 L 460.14062,253.78125 L 461.19531,253.25391"
           id="text3239" />
        <path
           style="font-size:36px;font-style:normal;font-variant:normal;font-weight:bold;font-stretch:normal;text-align:start;line-height:125%;writing-mode:lr-tb;text-anchor:start;fill:#ffffff;fill-opacity:1;stroke:none;stroke-width:1px;stroke-linecap:butt;stroke-linejoin:miter;stroke-opacity:1;font-family:AdriaDB;-inkscape-font-specification:AdriaDB Bold"
           d="M 259.10742,456.30469 C 254.3496,459.75002 251.07421,462.82619 249.28125,465.5332 C 249.78515,465.34572 250.55272,465.15236 251.58398,464.95312 C 253.14256,464.94142 254.43163,465.47462 255.45117,466.55273 C 256.48241,467.61915 256.99803,468.93165 256.99805,470.49023 C 256.99803,472.88087 256.04295,475.04297 254.13281,476.97656 C 252.23436,478.89844 250.08983,479.85938 247.69922,479.85938 C 245.87109,479.85938 244.35351,479.28516 243.14648,478.13672 C 241.93945,476.97657 241.33594,475.48829 241.33594,473.67188 C 241.33594,471.33985 242.30859,468.97853 244.25391,466.58789 C 245.7539,464.74806 247.91601,462.80861 250.74023,460.76953 C 251.09179,460.51174 253.31835,459.02346 257.41992,456.30469 L 259.10742,456.30469 M 247.01367,479.38477 C 248.54882,479.38477 249.8496,478.35352 250.91602,476.29102 C 251.32616,475.50586 251.94725,473.81251 252.7793,471.21094 C 253.33006,469.48829 253.60546,468.42189 253.60547,468.01172 C 253.60546,466.4297 252.76757,465.63869 251.0918,465.63867 C 249.49804,465.63869 247.96874,467.08009 246.50391,469.96289 C 245.21484,472.50587 244.57031,474.67383 244.57031,476.4668 C 244.57031,478.41211 245.38476,479.38477 247.01367,479.38477"
           id="text3243" />
        <path
           style="font-size:36px;font-style:normal;font-variant:normal;font-weight:bold;font-stretch:normal;text-align:start;line-height:125%;writing-mode:lr-tb;text-anchor:start;fill:#ffffff;fill-opacity:1;stroke:none;stroke-width:1px;stroke-linecap:butt;stroke-linejoin:miter;stroke-opacity:1;font-family:AdriaDB;-inkscape-font-specification:AdriaDB Bold"
           d="M 32.615234,252.16016 C 31.677726,252.46485 30.886711,252.61719 30.242188,252.61719 C 28.824213,252.61719 27.611324,252.10743 26.603516,251.08789 C 25.595701,250.05665 25.091795,248.82618 25.091797,247.39648 C 25.091795,244.87697 25.988278,242.65627 27.78125,240.73438 C 29.609368,238.76565 31.771476,237.78127 34.267578,237.78125 C 36.130846,237.78127 37.67772,238.35549 38.908203,239.50391 C 40.138655,240.64064 40.753888,242.13478 40.753906,243.98633 C 40.753888,247.88868 38.005844,251.83204 32.509766,255.81641 C 29.228509,258.19531 26.609371,260.02344 24.652344,261.30078 L 22.824219,261.33594 C 24.664061,260.12891 26.451168,258.7461 28.185547,257.1875 C 30.236321,255.33594 31.712882,253.66016 32.615234,252.16016 M 30.892578,251.9668 L 30.839844,251.9668 C 32.597647,251.9668 34.191395,250.49024 35.621094,247.53711 C 36.851549,244.99416 37.466782,242.72658 37.466797,240.73438 C 37.466782,239.96096 37.220689,239.35744 36.728516,238.92383 C 36.248034,238.47854 35.621081,238.25588 34.847656,238.25586 C 33.417958,238.25588 31.953116,239.78518 30.453125,242.84375 C 29.105463,245.57423 28.431635,247.76564 28.431641,249.41797 C 28.431635,251.1172 29.251947,251.9668 30.892578,251.9668"
           id="text3247" />
      </g>
      <path
         id="path3310"
         d="M 250,2 C 142.39108,2 50.62051,70.104478 15.40625,165.53125 C 77.28397,124.89982 159.62165,100.09375 250,100.09375 C 340.3783,100.09375 422.716,124.89981 484.5938,165.53125 C 449.3795,70.104477 357.6089,2 250,2 z"
         style="opacity:1;fill:url(#linearGradient3334);fill-opacity:1;stroke:none;stroke-width:0.99999994;stroke-linecap:butt;stroke-miterlimit:4;stroke-dasharray:none;stroke-opacity:1" />
      <path
         id="path3342"
         d="M 490.24679,265.98034 C 463.38589,352.59131 384.59259,420.74686 283.84049,433.57409 C 160.78969,449.24028 46.961881,377.02365 13.309241,268.13659 C 13.520041,276.25506 14.124791,284.44224 15.215491,292.66784 C 32.217061,420.88625 151.99566,510.91788 282.55924,493.60534 C 400.77409,477.93021 487.51639,379.6064 490.24679,265.98034 z"
         style="opacity:1;fill:url(#radialGradient3351);fill-opacity:1;stroke:none;stroke-width:0.94578385;stroke-linecap:butt;stroke-miterlimit:4;stroke-dasharray:none;stroke-opacity:1" />
    </g>
    <g
       id="g3404"
       transform="translate(250,250)">
      <rect
         inkscape:label="#rect3383"
         ry="1"
         y="-200"
         x="-1"
         height="200"
         width="2"
         id="rot_sec"
         style="opacity:1;fill:#ffffff;fill-opacity:1;stroke:none;stroke-width:1;stroke-linecap:butt;stroke-miterlimit:4;stroke-dasharray:none;stroke-opacity:1" />
    </g>
    <g
       id="g3407"
       transform="translate(250,250)">
      <rect
         inkscape:label="#rect3385"
         ry="2"
         y="-170"
         x="-2"
         height="170"
         width="4"
         id="rot_min"
         style="opacity:1;fill:#ffffff;fill-opacity:1;stroke:none;stroke-width:1;stroke-linecap:butt;stroke-miterlimit:4;stroke-dasharray:none;stroke-opacity:1" />
    </g>
    <g
       id="g3401"
       transform="translate(250,250)">
      <path
         inkscape:label="#rect3387"
         id="rot_hour"
         d="M 0,-150 C -1.662,-150 -3,-148.662 -3,-147 L -3,-3 C -3,-1.338 -1.662,0 0,0 C 1.662,0 3,-1.338 3,-3 L 3,-147 C 3,-148.662 1.662,-150 0,-150 z M 0,-148 C 0.554,-148 1,-146.71143 1,-145.09375 L 1,-4.90625 C 1,-3.28856 0.554,-2 0,-2 C -0.554,-1.99999 -1,-3.28857 -1,-4.90625 L -1,-145.09375 C -1,-146.71143 -0.554,-148 0,-148 z"
         style="opacity:1;fill:#ffffff;fill-opacity:1;stroke:none;stroke-width:1;stroke-linecap:butt;stroke-miterlimit:4;stroke-dasharray:none;stroke-opacity:1" />
    </g>
    <path
       style="fill:#ffffff;fill-opacity:1;stroke:none;stroke-width:1;stroke-linecap:butt;stroke-miterlimit:4;stroke-opacity:1"
       d="M 256,250 C 256,253.312 253.312,256 250,256 C 246.688,256 244,253.312 244,250 C 244,246.688 246.688,244 250,244 C 253.312,244 256,246.688 256,250"
       id="path3398"
       sodipodi:insensitive="true" />
    <g
       id="inkscape-logo"
       transform="translate(77.640669,85.732718)" />
  </g>
  <script
     id="script3412"
     type="text/ecmascript"> var angle_seconds = 0;
    var angle_minutes = 0;
    var angle_hours   = 0;

    // Keep track of old time... so we don't update the display if not necessary.  
    // This is a mechanical clock so it's OK to move the second hand once every second.
    var old_time = 0;

    // The gear groups
    var seconds;
    var minutes;
    var hours;

    function Start(evt) {
      seconds     = evt.target.ownerDocument.getElementById(&quot;rot_sec&quot;);
      minutes     = evt.target.ownerDocument.getElementById(&quot;rot_min&quot;);
      hours       = evt.target.ownerDocument.getElementById(&quot;rot_hour&quot;  );
      
      Run();
    }

    function Run() {

      // Get computer clock time
      var date = new Date();
      var s = date.getSeconds();
      var m = date.getMinutes();
      var h = date.getHours();

      // Set start angles... this is a little tricky
      s += m * 60.0 + h * 3600.0;

      if( old_time != s ) {
        angle_seconds =  (s * 6.0         ) % 360.0;
        angle_minutes =  (s * 6.0 /  60.0 ) % 360.0;
        angle_hours   =  (s * 6.0 / 720.0 ) % 360.0;

        seconds.setAttribute(&quot;transform&quot;, &quot;rotate(&quot; +angle_seconds+ &quot;)&quot;);
        minutes.setAttribute(&quot;transform&quot;, &quot;rotate(&quot; +angle_minutes+ &quot;)&quot;);
        hours.setAttribute(  &quot;transform&quot;, &quot;rotate(&quot; +angle_hours+   &quot;)&quot;);


      }

      old_time = s;

      // Repeat every 10th of a second.
      setTimeout(&quot;Run()&quot;, 100)
    }

    window.Run = Run</script>
</svg>
