<?xml version="1.0" encoding="UTF-8"?>
<svg id="MegaDLogo" width="32" height="32" version="1.1" viewBox="0 0 32 32" xml:space="preserve" xmlns="http://www.w3.org/2000/svg">
	<path id="path196" d="m29.6 18.9-12.5-12.5c-0.568-0.564-1.49-0.564-2.05 0l-12.5 12.5-2.43-2.43 12.5-12.5c1.9-1.91 5-1.91 6.93 0l12.5 12.5-2.43 2.43" 
	fill="#a22829" stroke-width=".2"/>
<path id="path206" d="m23.1 29.6h-14c-2.21 0-4-1.8-4-4v-8.21h3.44v8.21c0 0.318 0.259 0.582 0.579 0.582h14c0.318 0 0.579-0.264 0.579-0.582v-8.21h3.44v8.21c0 2.22-1.8 4-4 4" 
fill="#a22829" stroke-width=".2"/>
<path id="path208" d="m16 14.8c-0.484 0-0.799 0.104-0.95 0.308-0.154 0.208-0.23 0.63-0.23 1.28 0 0.816 0.0684 1.34 0.207 1.55 0.14 0.219 0.479 0.325 1.01 0.325 0.536 0 0.866-0.111 0.995-0.33 0.131-0.222 0.196-0.789 0.196-1.7 0-0.957-0.409-1.44-1.23-1.44m1.21-0.95h1.27v3.37l0.0156 0.273c0.0177 0.486 0.225 0.732 0.62 0.732 0.528 0 0.791-0.828 0.791-2.48 0-1.46-0.162-2.33-0.486-2.6-0.325-0.283-1.33-0.427-3-0.427-1.96 0-3.15 0.19-3.57 0.556-0.422 0.365-0.635 1.4-0.635 3.1 0 1.93 0.196 3.1 0.593 3.55 0.392 0.429 1.48 0.64 3.25 0.64 1.73 0 2.68-0.197 2.85-0.595l0.915 0.422c-0.367 0.771-1.71 1.15-4.02 1.15-1.92 0-3.15-0.298-3.72-0.903-0.561-0.595-0.843-1.92-0.843-3.94 0-2.15 0.3-3.5 0.9-4.07 0.595-0.573 2.01-0.856 4.24-0.856 1.94 0 3.17 0.233 3.7 0.694 0.518 0.466 0.779 1.56 0.779 3.27 0 1.35-0.133 2.27-0.397 2.75-0.263 0.486-0.761 0.734-1.49 0.734-0.997 0-1.53-0.308-1.6-0.92h-0.038c-0.196 0.635-0.779 0.95-1.75 0.95-0.759 0-1.28-0.186-1.57-0.556-0.278-0.377-0.422-1.06-0.422-2.07 0-1.12 0.131-1.86 0.399-2.23 0.268-0.372 0.799-0.558 1.59-0.558 0.828 0 1.35 0.255 1.57 0.764h0.0419v-0.734" 
fill="#2853a8" stroke-width=".2"/>
</svg>
