<!-- Created with Inkscape (http://www.inkscape.org/) -->
<svg id="OkBitLogo" version="1.1" viewBox="0 0 200 200" xmlns="http://www.w3.org/2000/svg">
 <path id="OkBitLogo1" d="m139 100a39.1 39.4 0 0 1 -39.1 39.4 39.1 39.4 0 0 1 -39.1 -39.4 39.1 39.4 0 0 1 39.1 -39.4 39.1 39.4 0 0 1 39.1 39.4zm-139-0.0424 10.2-20.9c3.21-13.4 9.12-26.1 18.5-38.1l-8.3-1.3c20.5-24.8 45.2-37.8 75.1-39.8 3.22 2.37 6.46 2.03 9.69 0 40.4 3.97 58.3 21.5 74.9 39.7l-8.65 1.43c9.18 10.9 14.7 23.8 18.4 37.6l10.2 21.5-9.95 21c-1.87 9.7-6.18 21.1-18.4 38.1l8.71 1.54c-19.8 23.7-44.3 38.2-75.6 39.1-5.5-3.42-6.33-1.65-9.76 0.103-24-1.13-48.5-9.61-74.6-39l8.14-1.6c-6.1-7.27-14.7-23.4-18.4-38z" fill-rule="evenodd" style="paint-order:normal"/>
 <path id="OkBitLogo2" d="m90.4 145c-8.88 4.8-31 12.7-61.7 17.1 11 10.3 27.4 30.2 66.6 32.9 69.4-23.7 90.6-69.8 101-95.7-28-64-64.1-83-102-95.4-24.2 1.4-44.4 10.5-66.5 32.6 20.5 2.73 43.7 8.12 61.4 17.8 22.6-3.81 51.7 7.63 57.1 41.8 5.26 1.76 5.29 3.02 0.854 6.53-4.55 20.3-17.2 46.2-56.8 42.4z" fill="#f68338" fill-opacity=".9" fill-rule="evenodd"/>
 <path id="OkBitLogo3" d="m111 144c8.88 4.8 30.8 13.7 61.5 18.1-11 10.3-27.9 29.6-67.1 32.4-69.4-23.7-91-70.3-101-96.2 28-64 63.6-83.1 101-95.5 24.2 1.4 46.6 10.9 66.5 32.6-22.3 3.49-44.1 8.84-61.9 18.5-28.5-1.81-48 8.78-55.8 41.5-3.7 2.91-4.3 3.31 0.142 6.81 1.2 21.9 18.6 47.2 56.6 41.7z" fill="#4eaa4b" fill-rule="evenodd"/>
</svg>
